<?xml version="1.0" encoding="utf-8" ?>
<svg baseProfile="full" height="300mm" version="1.1" viewBox="0,0,200,300" width="200mm" xmlns="http://www.w3.org/2000/svg" xmlns:ev="http://www.w3.org/2001/xml-events" xmlns:xlink="http://www.w3.org/1999/xlink"><defs /><rect fill="#222222" height="300" width="200" x="0" y="0" /><text fill="#FFFFFF" style="font-size:12px; font-family:Arial; font-weight:bold;" x="10" y="20">Over 1km Runs</text><text fill="#FFFFFF" style="font-size:4px; font-family:Arial" x="10" y="280">ATHLETE</text><text fill="#FFFFFF" style="font-size:9px; font-family:Arial" x="10" y="290">wangbin</text><text fill="#FFFFFF" style="font-size:4px; font-family:Arial" x="65" y="280">SPECIAL TRACKS</text><rect fill="yellow" height="2.6" width="2.6" x="65" y="283" /><text fill="#FFFFFF" style="font-size:3px; font-family:Arial" x="70" y="285.5">Over 20.0 km</text><rect fill="red" height="2.6" width="2.6" x="65" y="287" /><text fill="#FFFFFF" style="font-size:3px; font-family:Arial" x="70" y="289.5">Over 40.0 km</text><text fill="#FFFFFF" style="font-size:4px; font-family:Arial" x="120" y="280">STATISTICS</text><text fill="#FFFFFF" style="font-size:3px; font-family:Arial" x="120" y="285">Number: 1</text><text fill="#FFFFFF" style="font-size:3px; font-family:Arial" x="120" y="290">Weekly: 1.0</text><text fill="#FFFFFF" style="font-size:3px; font-family:Arial" x="141" y="285">Total: 42.7 km</text><text fill="#FFFFFF" style="font-size:3px; font-family:Arial" x="141" y="290">Avg: 42.7 km</text><text fill="#FFFFFF" style="font-size:3px; font-family:Arial" x="167" y="285">Min: 42.7 km</text><text fill="#FFFFFF" style="font-size:3px; font-family:Arial" x="167" y="290">Max: 42.7 km</text><polyline fill="none" points="62.69852568564238,231.0 62.705890968383756,230.1356698099844 62.74271738194511,229.27132965593046 62.66169927208102,228.34460337017663 62.19768646097509,227.65846210527525 62.17559061283828,226.76736018008523 62.18295589555055,225.89407001720247 62.17559061283828,224.99403583720414 62.168225330126006,224.08507946087047 62.15349476467236,223.17611206311994 61.77050006345962,222.445365574873 62.131398916535545,221.83937527901435 62.84583133997512,222.21366398141254 63.56762904612697,222.22257559439458 64.40727127576247,222.22257559439458 65.20272180906613,222.22257559439458 66.21176554111298,222.16910590053885 67.25027040403802,222.16910590053885 68.29614054970443,222.15128266080137 69.30518428178038,222.142371039321 70.33632386196405,222.11563616854983 71.28644533231272,222.1780175188469 72.2881237816473,222.23148720631434 73.22351468660054,222.26713364345778 74.18100143963238,222.29386846017587 75.19741045444971,222.30278006364824 76.1696277729352,222.32060326738429 77.1639409395575,222.31169166602922 78.20981108519481,222.31169166602922 79.14520199014805,222.38298444708198 79.94065252345172,222.8642089456116 80.78766003574128,222.57012767471315 80.98652266908903,221.60767181243136 80.89813927648356,220.69867437316861 80.78766003574128,219.79857781162718 80.67718079502811,218.72023007578537 80.66981551228673,217.65077898203162 80.64771966414992,216.55457577393827 80.64771966414992,215.49400619084918 80.69927664316492,214.4155965198952 80.74346833943855,213.31043331904948 80.80239060119493,212.1428641687453 80.80239060119493,211.1802743944645 80.82448644933174,210.2800635093663 80.79502531845355,209.73636654849543 80.78766003574128,208.89853072136611 80.83185173204402,207.91807264480303 80.83185173204402,206.99999572410889 80.88340871105902,206.09973461605114 80.92023512462038,205.17272177519044 80.89077399377129,204.13873238280212 80.68454607771127,203.06907316689467 80.2058027011808,202.16876482364023 80.13214987405809,201.13473397138296 80.14688043948263,200.15417428920773 80.16897628761944,199.11120126827154 80.19843741846853,198.03255577544041 80.2058027011808,197.0608700913508 80.19843741846853,196.0891718023122 80.19107213578536,195.08180155252194 80.17634157036082,194.58256879728287 80.17634157036082,194.03875790245365 80.14688043948263,193.01352990318264 80.16161100487807,192.0685247092115 80.17634157036082,191.03435441749752 80.1542457221949,190.009085290425 80.17634157036082,188.99271769333427 80.17634157036082,187.98525198841526 80.17634157036082,186.93319368830998 80.17634157036082,185.86328873296588 80.19843741846853,184.77553635722143 80.2058027011808,183.73234915338253 80.19843741846853,182.6891474157528 80.2058027011808,181.62809826032753 80.21316798392218,180.57595063668123 80.21316798392218,179.56837168011407 80.22053326663445,178.5875295824153 80.2058027011808,177.68692688548617 80.21316798392218,176.7238941933465 80.19843741846853,175.71626339211798 80.23526383205899,174.70861902783508 80.23526383205899,173.67420893449162 80.24262911477126,172.64870205950865 80.25735968022491,171.68560454915132 80.59616268516402,170.9811087078706 81.62730226534768,170.96327328406187 82.6437112801359,170.95435557056044 83.6674855776364,171.00786183562013 84.68389459242462,170.9811087078706 85.65611191091011,170.9989441274447 86.61359866397106,170.9989441274447 87.59318126516882,170.9989441274447 88.5433027355175,170.9989441274447 89.4860589231539,170.9811087078706 90.10474267127574,170.96327328406187 90.68660000583623,170.96327328406187 91.4010324292758,170.93652014036343 92.27013578973128,170.9811087078706 92.80043614524766,170.82058974057145 92.91828066876042,169.8485508623562 92.9477417995804,169.80396162016405 92.9477417995804,169.79504376855039 92.9477417995804,169.79504376855039 92.92564595141448,168.94784301897744 92.90355010330677,168.15414098475594 92.91828066876042,167.05721308282955 92.93301123415586,166.03161554210237 92.92564595141448,165.1130249436901 92.91828066876042,164.13199340714345 92.91091538601904,163.17770493682474 93.44858102427679,162.6069097551008 94.40606777733774,162.56231619818573 95.37828509582323,162.56231619818573 96.35786769702099,162.55339748359984 97.27852803649148,162.57123491170205 98.21391894141561,162.589072335526 99.14194456359837,162.57123491170205 100.06997018581023,162.57123491170205 101.00536109070526,162.56231619818573 101.91129086475121,162.56231619818573 102.91296931411489,162.589072335526 103.87045606717584,162.57123491170205 104.82794282023679,162.589072335526 105.76333372516092,162.57123491170205 106.69135934734368,162.57123491170205 107.58992383867735,162.6158284632911 108.51058417814784,162.59799104586273 109.41651395222289,162.59799104586273 109.48280149666243,161.88449086102628 109.08507622996694,161.1888216306179 108.61369813617785,160.3861183281988 108.30435626211693,159.5209729049675 109.04088453372242,159.44962025859422 109.81423921886017,159.43178208639438 110.6170550348761,159.44962025859422 111.11052897683112,159.46745842656674 111.62609876695205,159.47637750895228 112.50256741014891,159.33367206313414 113.40849718419486,159.03042208710394 114.2628699792258,158.5131104678585 115.04358994710492,157.9779567532314 115.84640576312086,157.45171853471402 116.53137705571135,156.82736330535408 117.20898306556046,156.1762444448177 117.83503209642367,155.48052214006748 118.40952414824278,154.83831119343813 118.57892565071234,154.6688379410116 118.94718978650053,154.24069327747566 119.48485542472918,153.56279254920082 120.10353917288012,152.82244657851697 120.64120481110876,152.7332477742675 121.28198440742563,153.16140106476814 121.55449986792519,153.44683523045387 122.03324324442656,153.73226830713247 122.90234660488204,154.24069327747566 123.71989298635162,154.90966823753115 124.5669004986703,155.47160258134681 125.24450650854851,156.16732496901386 126.06205288998899,156.64005572054884 126.87959927142947,157.0860253896244 127.40253434426268,157.862006277217 128.14642789858044,158.29904944133887 128.7356505158241,158.96798811594635 129.2070286096423,159.70827327793813 129.90673046765733,160.2434146173764 130.6211628910969,160.81422782770824 131.41661342440057,161.36719897292642 132.1384111305524,162.0093538844667 132.8749394021288,162.55339748359984 133.67775521814474,162.99041324775317 134.3185348144616,163.38283339177724 134.67206838479615,163.6503914010682 135.20236874034163,164.01605246670806 135.70320796503802,164.4352227098061 136.4176403884776,165.0862697087141 137.22045620449353,165.34490324596845 137.50770223041764,164.4798151507057 137.77285240814672,163.6236356431982 138.08219428220764,162.72285287876002 138.2221346538572,161.83097807290324 137.44877996869036,161.22449713310198 136.6533294353576,160.63584916722175 135.85787890205393,160.08287261740043 135.08452421688708,159.54773012982332 134.31116953172022,159.00366467726417 133.56727597743156,158.48635287304205 132.77919072684017,157.96903749223566 132.02056660709786,157.46955717899255 131.3282300317951,157.00575104536256 130.57697119479417,156.5151837368321 129.81098179231049,155.98001573180954 129.0449923899141,155.4359243357685 128.2642724220059,154.90074861072208 127.46882188870222,154.34772967307072 126.70283248627675,153.81254616375372 125.90738195297308,153.25059935852187 125.15612311594305,152.72432788798324 124.45642125792801,152.17129286179988 123.7272582690639,151.5558135903848 122.99809528019978,150.94032925510692 122.25420172588201,150.3783608741942 121.56923043332063,150.94924935408926 121.00210366421379,151.60041370774707 120.43497689507785,152.3050920333626 119.7426403198042,151.8323338894843 119.02820789636462,151.38633290182042 118.49054225813597,151.1098109540835 117.86449322730186,150.61920498295513 117.43730682975729,150.199957330733 116.76706610262045,149.51309971604496 116.1778434853477,148.7905543795423 115.56652501993813,148.1215246967331 114.94047598910402,147.40788643946144 114.52802015698398,146.56935278695164 114.04927678045351,145.802175466044 113.82831829899806,144.88333645829698 113.46741944592213,144.09830001469527 113.11388587555848,143.3132553311225 113.04759833111893,142.46575466169452 112.86346626319573,141.5557958830832 112.84137041508802,140.66366868506157 112.77508287061937,139.77153084455495 112.59831608543755,138.87046082244342 112.35526175581617,137.9693799428569 112.27424364595208,137.05936645058682 112.33316590767936,136.38130998183624 112.19322553605889,135.5961842839315 112.07538101260434,134.71290801978466 112.13430327433161,133.80285489503876 112.09747686077026,132.85710167571233 112.06801572989207,132.00948249305657 112.09747686077026,131.081551527619 112.28160892863525,130.26067991938908 112.28160892863525,129.40410863190482 113.19490398542257,129.38626329238468 114.11556432489306,129.57363914483722 113.26855681257439,129.34164992496517 112.38472288669436,129.10073728079442 112.38472288669436,128.21738427691162 112.3478964731039,127.29832916352461 112.25951308052754,126.39710880847997 112.42154930028482,125.50480072307982 112.44364514842164,124.66602141084877 112.41418401754345,124.25555150903529 112.3994534521189,123.57737890677527 112.41418401754345,122.89920015157986 112.41418401754345,121.98900320407847 112.57622023727163,121.18587904582091 113.02550248295302,120.43628871216788 113.54107227307395,119.64207170395821 113.8430488644226,118.82107446467853 114.01245036689215,117.99114417609235 114.03454621502897,117.07196331545128 113.8430488644226,116.25093784234923 113.5263417076203,115.47452502087981 113.1875387026812,114.68025528197177 112.97394550396712,113.84135448082816 112.93711909034755,113.00244426200516 112.93711909034755,112.13675043902185 112.83400513234665,111.27104658666212 112.61304665086209,110.42318257656734 112.43627986568026,109.5306837510143 112.36999232124072,108.76312623453123 112.42154930028482,108.12051387750398 112.480471561983,107.39756836937158 112.50256741014891,106.54073500484083 112.55412438916392,105.67496631204267 112.53939382371027,104.83596439828398 112.39208816937753,103.98802735900244 112.25214779781527,103.1668581055419 112.36999232124072,102.34567982562294 112.2963394940889,101.50664052050706 112.1122074261948,100.68544399002712 112.06801572989207,99.87316462769377 112.06801572989207,99.06087643237697 112.05328516446752,98.20394744285295 112.04591988175525,97.40949407673907 112.06801572989207,96.57932591303688 112.07538101260434,95.7491485221617 112.05328516446752,94.99037616910209 112.02382403361844,94.14232735802216 111.97226705460344,93.57993178343168 111.9280753583007,92.83899146605108 111.83232668301207,92.16053364388063 111.8765183792857,91.26781659250264 111.8765183792857,90.41079818332946 111.84705724843661,89.53591507904639 111.83232668301207,88.68780432644417 111.81023083484615,87.88432209649181 111.84705724843661,87.08975894478499 111.91334479287616,86.31304297275346 111.97226705460344,85.5184631007869 112.0606504471798,84.69709074961429 112.21532138422481,83.9024936808637 112.39208816937753,83.09003175458201 112.53939382371027,82.28648928539769 112.70879532617982,81.48293816787918 112.86346626319573,80.67937840165541 113.01813720026985,79.91152432178933 113.1875387026812,79.10794764143066 113.41586246690713,78.33114862827642 113.73993490639259,77.53648380258528 114.06400734590716,76.91146058065351 114.5501160051499,76.31321916660818 115.01412881622673,75.61675297313195 115.45604577916674,74.90242192184814 115.92005859027267,74.17915476764756 116.37670611863723,73.43802189525013 116.82598836434772,72.74152887408854 117.31209702359047,72.08074743587349 117.85712794456049,71.500326481706 118.45371584454551,70.96454928699677 119.10186072351644,70.49127623248205 119.77210145065328,70.03585970510176 120.5012644395465,69.62508947328024 121.14204403580516,69.3661244695686 121.91539872097201,69.11608844091097 121.89330287283519,69.19645725575538 121.11258290495607,69.42863334583672 120.36132406792603,69.75010673968063 119.67635277536465,70.16087628344394 119.02084261365235,70.66094050277025 118.42425471366732,71.10742358163407 117.96760718527366,71.49139689331787 117.68772644209093,71.78607274628303 117.18688721742365,72.38435044472135 116.73760497174226,73.06298799910292 116.2809574433777,73.76840733776044 115.83904048040858,74.47382000977814 115.41185408286401,75.18815516267205 114.99203296806081,75.86676722614357 114.52065487430082,76.51858616261597 114.04191149774124,77.15254158621246 113.72520434099715,77.84006462217803 113.4232277496194,78.55436756314884 113.22436511630076,79.32223560195416 113.06969417925575,80.09902430262446 112.91502324221074,80.84009104678262 112.76035230519483,81.61686395470315 112.61304665086209,82.4025570653248 112.43627986568026,83.12574455249705 112.2963394940889,83.88463746983325 112.14903383978526,84.66137870328384 112.06801572989207,85.23276939477364 112.02382403361844,85.67916533004609 112.00172818548162,86.31304297275346 111.95017120643752,87.16118069753429 111.91334479287616,87.84861157452542 111.92071007558843,88.68780432644417 111.94280592372525,89.48235047437629 111.97226705460344,90.19654204427934 111.98699762002798,90.97321762370848 111.9280753583007,91.723103622091 111.99436290274025,92.53547162330506 112.0606504471798,93.31212287845119 112.07538101260434,94.07091228171339 112.10484214348253,94.8564743654133 112.13430327433161,95.62417478251155 112.12693799164845,96.36508746973414 112.1122074261948,97.12384585734253 112.10484214348253,97.89152296988323 112.11957270890707,98.64133950960968 112.12693799164845,99.42685352583067 112.10484214348253,100.10524534681463 112.18586025334662,100.81040926180867 112.35526175581617,101.4530845002082 112.41418401754345,101.86367967454134 112.43627986568026,102.34567982562294 112.34053119039163,103.1668581055419 112.49520212740754,103.93447311760247 112.61304665086209,104.73778270748153 112.64250778174028,105.4518284249134 112.61304665086209,106.22834539631003 112.57622023727163,107.01377963981213 112.52466325828573,107.79028037747048 112.49520212740754,108.58462335642253 112.49520212740754,109.3164824465639 112.60568136814982,110.09295925359038 112.80454400149756,110.8962026318186 112.98867606936255,111.68158780825615 113.0549636138312,112.38664246912231 113.04023304837756,113.17201198056864 113.07705946196802,113.96629775020119 113.24646096443757,114.68917970795883 113.5558028384985,115.41205467313557 113.8946058434376,116.11707413826662 114.09346847675624,116.84885945983115 114.12292960760533,117.61633392806107 114.13766017305898,118.38380051505374 114.63849939772626,118.16070057552133 115.52969860634767,118.0803844342663 116.40616724954452,118.27671262720105 117.00275514950044,118.95493332555634 117.8276668136823,119.22265032806172 118.6673090432887,118.89246588698734 118.15173925319687,118.13392853801633 118.0633558605914,117.28614239029412 117.50359437419684,117.55386537061713" stroke="red" stroke-linecap="round" stroke-linejoin="round" stroke-width="0.5"><title>2024-11-03 42.7km</title><desc>9223370306246176807</desc></polyline></svg>