<?xml version="1.0" encoding="utf-8" ?>
<svg baseProfile="full" height="200mm" version="1.1" viewBox="0,0,200,200" width="200mm" xmlns="http://www.w3.org/2000/svg" xmlns:ev="http://www.w3.org/2001/xml-events" xmlns:xlink="http://www.w3.org/1999/xlink"><defs /><rect fill="#1a1a1a" height="200" width="200" x="0" y="0" /><text alignment-baseline="middle" fill="#e1ed5e" style="dominant-baseline: central; font-size:9.0px; font-family:Arial;" text-anchor="middle" x="100.0" y="100.0">2017</text><line stroke="#e1ed5e" stroke-width="0.3" x1="100.0" x2="100.0" y1="15.0" y2="10.0" /><path d="M 100.0 14.0 a86.0,86.0 0 0,1 42.46469731375804,11.215312516191453" fill="none" id="id13" stroke="none" /><text fill="#e1ed5e" style="font-size:6.75px; font-family:Arial;" text-anchor="middle"><textPath startOffset="22.20632615414155" xlink:href="#id13">January</textPath></text><path d="M 100.0 79.0 l 0.0 -20.10019582245431 a41.10019582245431,41.10019582245431 0 0,0 0.7074723087664548,0.0060894375185320615 l -0.3459918294939265 20.097217761544336" fill="#fffb17" stroke="none" /><path d="M 105.01212808612495 79.60689891045804 l 3.533704534424582 -14.377763806672354 a35.80564621409921,35.80564621409921 0 0,0 0.5972571239851256,0.15225413938840857 l -3.780670547094733 14.314806671115077" fill="#ffb811" stroke="none" /><path d="M 107.76421540070413 80.48803036053334 l 5.4615217153311875 -13.725153205456618 a35.77186684073107,35.77186684073107 0 0,0 0.5701628974537609,0.2325837618091631 l -5.696968482373336 13.629108557463875" fill="#ffb711" stroke="none" /><line stroke="#e1ed5e" stroke-width="0.3" x1="143.23703022742887" x2="145.7803849466894" y1="26.81831364943548" y2="22.513508569990506" /><path d="M 143.74570117128098 25.957352633546492 a86.0,86.0 0 0,1 28.547481713284135,27.462654790039103" fill="none" id="id14" stroke="none" /><text fill="#e1ed5e" style="font-size:6.75px; font-family:Arial;" text-anchor="middle"><textPath startOffset="19.985693538727396" xlink:href="#id14">February</textPath></text><path d="M 113.06298171725822 83.55741782278167 l 9.146640200909312 -11.513021024151461 a35.70410419126048,35.70410419126048 0 0,0 0.47791915930774415,0.38644405644379715 l -9.343462758781547 11.353870870443535" fill="#ffb610" stroke="none" /><path d="M 113.89432698308785 84.25364557470407 l 9.769552605472617 -11.071773256062906 a35.76578210406637,35.76578210406637 0 0,0 0.45812392409665836,0.4113081823939691 l -9.958687517165265 10.901966064899641" fill="#ffb711" stroke="none" /><path d="M 114.16331599549186 84.49514656593476 l 9.923217395193875 -10.863136242658165 a35.7131904255614,35.7131904255614 0 0,0 0.45031291758200087,0.41851678001779613 l -10.108738196570723 10.690714876565728" fill="#ffb710" stroke="none" /><path d="M 114.68862486808459 84.99185889309783 l 3.1735695605639944 -3.242603048635477 a25.537181755975666,25.537181755975666 0 0,0 0.3115100824048169,0.31017235911339247 l -3.2289154431361338 3.1874948388719657" fill="#ff2b04" stroke="none" /><path d="M 114.94478906791727 85.2469230424477 l 3.2049222838933873 -3.1638094644478505 a25.50346723904218,25.50346723904218 0 0,0 0.3057206715973295,0.31507202568677206 l -3.258907219193826 3.108173243210964" fill="#ff2b04" stroke="none" /><line stroke="#e1ed5e" stroke-width="0.3" x1="172.23445277983987" x2="176.4835382374775" y1="55.19839476539836" y2="52.563006222186495" /><path d="M 173.08426987136738 54.67131705675599 a86.0,86.0 0 0,1 12.851231095245387,41.99856678651699" fill="none" id="id15" stroke="none" /><text fill="#e1ed5e" style="font-size:6.75px; font-family:Arial;" text-anchor="middle"><textPath startOffset="22.20632615414155" xlink:href="#id15">March</textPath></text><path d="M 118.3937258080291 89.86733742301442 l 27.21238873622582 -14.990652565755767 a52.068211488250654,52.068211488250654 0 0,0 0.42569953336727245,0.7887565827752321 l -27.46639636881156 14.520014999648076" fill="#84ff25" stroke="none" /><path d="M 120.98425023603335 99.18683210126433 l 14.842971854292337 -0.5751851077824891 a35.85411227154047,35.85411227154047 0 0,0 0.01859002521114945,0.6169124333944405 l -14.850673573959131 0.31960252696304947" fill="#ffb811" stroke="none" /><line stroke="#e1ed5e" stroke-width="0.3" x1="184.98032266829074" x2="189.97916517819016" y1="98.17113171792111" y2="98.06355123074" /><path d="M 185.9800911702706 98.14961562048488 a86.0,86.0 0 0,1 -9.607161424134198,41.387399972396054" fill="none" id="id16" stroke="none" /><text fill="#e1ed5e" style="font-size:6.75px; font-family:Arial;" text-anchor="middle"><textPath startOffset="21.466115282336823" xlink:href="#id16">April</textPath></text><path d="M 120.8583938346157 102.4346265915055 l 62.38362062503926 7.28152046856346 a83.80713862788953,83.80713862788953 0 0,0 -0.17958070250453353,1.43143488999043 l -62.249038413287884 -8.354273112841284" fill="#4dd4ff" stroke="none" /><path d="M 119.79798401119884 107.00284435728193 l 14.990140825661218 5.302237997387217 a36.90025313490612,36.90025313490612 0 0,0 -0.21696600118698725,0.5969972520769415 l -14.896650563469004 -5.559483046470289" fill="#ffc612" stroke="none" /><path d="M 119.67450827220406 107.3425965602758 l 13.702344837899433 5.1137638960265654 a35.62548581213677,35.62548581213677 0 0,0 -0.21936090989379284,0.5726821157284557 l -13.612289648412133 -5.348869578588165" fill="#ffb510" stroke="none" /><line stroke="#e1ed5e" stroke-width="0.3" x1="174.80103733775053" x2="179.2010983576182" y1="140.37084112569926" y2="142.7455964860345" /><path d="M 175.68104954172406 140.8457921977663 a86.0,86.0 0 0,1 -30.038265399797805,32.042727171017184" fill="none" id="id17" stroke="none" /><text fill="#e1ed5e" style="font-size:6.75px; font-family:Arial;" text-anchor="middle"><textPath startOffset="22.206326154141568" xlink:href="#id17">May</textPath></text><path d="M 114.29624159901734 115.38237550388516 l 10.030516695677917 10.792569028877669 a35.734001880866,35.734001880866 0 0,0 -0.4541629143502413,0.41486705416018005 l -9.843254231860813 -10.963628849624431" fill="#ffb711" stroke="none" /><line stroke="#e1ed5e" stroke-width="0.3" x1="143.8653032363475" x2="146.44561519142675" y1="172.8068346515853" y2="177.08958963109032" /><path d="M 144.38136562736335 173.6633856474863 a86.0,86.0 0 0,1 -40.68145358897372,12.25698825130547" fill="none" id="id18" stroke="none" /><text fill="#e1ed5e" style="font-size:6.75px; font-family:Arial;" text-anchor="middle"><textPath startOffset="21.466115282336833" xlink:href="#id18">June</textPath></text><path d="M 110.8373102113329 117.98757091392108 l 7.297977064213414 12.113049955276932 a35.14165649592789,35.14165649592789 0 0,0 -0.5208196460389011,0.3077094270682787 l -7.0883895471461305 -12.23687795463896" fill="#ffaf10" stroke="none" /><path d="M 109.89434966115114 118.52300852407294 l 7.216011264040322 13.508946290672576 a36.315431709456746,36.315431709456746 0 0,0 -0.5539125312007988,0.2897808568012916 l -6.982407830313028 -13.631156566418586" fill="#ffbe11" stroke="none" /><path d="M 107.59598834532513 119.57807347666477 l 5.348523199910193 13.785405590298591 a35.78661921160524,35.78661921160524 0 0,0 -0.5762153168455328,0.21787532804625676 l -5.110437662304386 -13.875429168451479" fill="#ffb811" stroke="none" /><path d="M 105.18746579009965 120.34920634021253 l 3.3928485503626367 13.309345646999228 a34.734995552856766,34.734995552856766 0 0,0 -0.5806479092042637,0.14270912898896415 l -3.163247356415162 -13.365776034302222" fill="#ffaa0f" stroke="none" /><line stroke="#e1ed5e" stroke-width="0.3" x1="102.19456741930631" x2="102.32365962044197" y1="184.97166512339345" y2="189.96999836594603" /><path d="M 102.22038585953345 185.97133177190398 a86.0,86.0 0 0,1 -42.740103519485714,-10.115201625700543" fill="none" id="id19" stroke="none" /><text fill="#e1ed5e" style="font-size:6.75px; font-family:Arial;" text-anchor="middle"><textPath startOffset="22.20632615414155" xlink:href="#id19">July</textPath></text><path d="M 99.09653310690486 120.98055641714683 l -0.37898559178025676 8.800907537841745 a29.809063716900717,29.809063716900717 0 0,0 -0.5124489367249386,-0.02648775662834303 l 0.5304225969186843 -8.7930799744512" fill="#ff6709" stroke="none" /><path d="M 93.08242187328487 119.8279376855182 l -4.839059484613644 13.870254612216018 a35.690148389425104,35.690148389425104 0 0,0 -0.5783171131020871,-0.20736394122107366 l 5.077096158345458 -13.784903129954987" fill="#ffb610" stroke="none" /><line stroke="#e1ed5e" stroke-width="0.3" x1="58.666819895761336" x2="56.23545636021788" y1="174.27360380694188" y2="178.64263932499728" /><path d="M 58.180547188652646 175.14741091055294 a86.0,86.0 0 0,1 -31.652253787137756,-30.449443065178592" fill="none" id="id20" stroke="none" /><text fill="#e1ed5e" style="font-size:6.75px; font-family:Arial;" text-anchor="middle"><textPath startOffset="22.20632615414155" xlink:href="#id20">August</textPath></text><path d="M 89.7882731507175 118.34994917583269 l -8.39492768929889 15.085254306841257 a38.263826586554615,38.263826586554615 0 0,0 -0.5727752890379303,-0.3252367576325309 l 8.653351745258028 -14.938514383414095" fill="#ffd714" stroke="none" /><path d="M 84.67929136418377 114.36230785411682 l -10.764402680019428 10.091025737197084 a35.754699776219894,35.754699776219894 0 0,0 -0.4170591495818747,-0.452635336688701 l 10.936508237597032 -9.904239145707038" fill="#ffb711" stroke="none" /><line stroke="#e1ed5e" stroke-width="0.3" x1="26.63291911575756" x2="22.317208475507996" y1="142.92168965132927" y2="145.44649492493687" /><path d="M 25.769776987707644 143.4266507060508 a86.0,86.0 0 0,1 -11.730757126820373,-40.83630448921669" fill="none" id="id21" stroke="none" /><text fill="#e1ed5e" style="font-size:6.75px; font-family:Arial;" text-anchor="middle"><textPath startOffset="21.46611528233685" xlink:href="#id21">September</textPath></text><path d="M 80.87730276802145 108.67885076344099 l -13.40876603487453 6.085578719719756 a35.72512393604586,35.72512393604586 0 0,0 -0.24932549580511762,-0.5621631730319506 l 13.511532615410928 -5.853867210195109" fill="#ffb710" stroke="none" /><path d="M 80.45479744820244 107.68017299344265 l -28.657816511631534 11.26092133557476 a51.79088820642146,51.79088820642146 0 0,0 -0.31889800523920764,-0.8325420624412584 l 28.84740879646425 -10.765955706300344" fill="#87ff25" stroke="none" /><path d="M 79.4281124754447 104.21870165774334 l -8.80645213104739 1.8059497048941853 a29.989719321148826,29.989719321148826 0 0,0 -0.0993517515815845,-0.5065924408696418 l 8.836233815604642 -1.6540935369565888" fill="#ff6a09" stroke="none" /><path d="M 79.29508885075956 103.50808413554451 l -4.390429686066092 0.7438813245270625 a25.45300261096606,25.45300261096606 0 0,0 -0.06947245028086002,-0.43260501421555475 l 4.402583890708243 -0.6681970806182941" fill="#ff2a04" stroke="none" /><line stroke="#e1ed5e" stroke-width="0.3" x1="15.007084014347285" x2="10.007500721073583" y1="101.09737516637583" y2="101.16192664675087" /><path d="M 14.007167355692545 101.11028546245083 a86.0,86.0 0 0,1 10.666146001902534,-42.60595125391555" fill="none" id="id22" stroke="none" /><text fill="#e1ed5e" style="font-size:6.75px; font-family:Arial;" text-anchor="middle"><textPath startOffset="22.20632615414155" xlink:href="#id22">October</textPath></text><path d="M 79.00175016825051 100.2711162175752 l -15.102527130947772 0.19499434783266986 a36.10378590078329,36.10378590078329 0 0,0 -0.0026746075040500698,-0.6214845906712829 l 15.103646035741324 0.06499972104228838" fill="#ffbc11" stroke="none" /><path d="M 79.26566170972629 96.67025291283419 l -14.608195911242357 -2.345944061645028 a35.79536553524804,35.79536553524804 0 0,0 0.10293407099413308,-0.6075227137710576 l 14.565649978728 2.5970525637319137" fill="#ffb811" stroke="none" /><path d="M 79.46518482838121 95.60439243477599 l -14.562408558388745 -3.1171760102134063 a35.892297650130544,35.892297650130544 0 0,0 0.13452025183137384,-0.6030279121893694 l 14.506593919555334 3.367382091952735" fill="#ffb911" stroke="none" /><path d="M 80.2630227832202 92.82701384747504 l -14.120846484123748 -5.131922440810121 a36.02447780678851,36.02447780678851 0 0,0 0.21682517601919135,-0.5809836730361545 l 14.030416719602929 5.374229250875617" fill="#ffbb11" stroke="none" /><path d="M 81.10775173730289 90.83032412892265 l -56.676744788091334 -27.50902761323202 a84.0,84.0 0 0,0 0.6425599481863489,-1.295361646004154 l 56.19482482695157 28.480548847735136" fill="#4dd2ff" stroke="none" /><line stroke="#e1ed5e" stroke-width="0.3" x1="26.266209847984243" x2="21.928928074336255" y1="57.711370442889674" y2="55.22380399835377" /><path d="M 25.398753493254645 57.213857153982495 a86.0,86.0 0 0,1 29.58750427330803,-30.492523968695096" fill="none" id="id23" stroke="none" /><text fill="#e1ed5e" style="font-size:6.75px; font-family:Arial;" text-anchor="middle"><textPath startOffset="21.46611528233685" xlink:href="#id23">November</textPath></text><line stroke="#e1ed5e" stroke-width="0.3" x1="56.762969772571076" x2="54.21961505331055" y1="26.818313649435495" y2="22.513508569990535" /><path d="M 56.25429882871897 25.957352633546506 a86.0,86.0 0 0,1 42.265352541879196,-11.944610805530505" fill="none" id="id24" stroke="none" /><text fill="#e1ed5e" style="font-size:6.75px; font-family:Arial;" text-anchor="middle"><textPath startOffset="22.20632615414155" xlink:href="#id24">December</textPath></text><path d="M 94.63758080256005 79.69619591428918 l -0.3986561642259421 -1.5094375053462294 a22.56119451697128,22.56119451697128 0 0,0 0.3763326619020842,-0.09593557491509558 l 0.3726146136388585 1.5160760764301882" fill="#ff0000" stroke="none" /></svg>