<?xml version="1.0" encoding="utf-8" ?>
<svg baseProfile="full" height="200mm" version="1.1" viewBox="0,0,200,200" width="200mm" xmlns="http://www.w3.org/2000/svg" xmlns:ev="http://www.w3.org/2001/xml-events" xmlns:xlink="http://www.w3.org/1999/xlink"><defs /><rect fill="#1a1a1a" height="200" width="200" x="0" y="0" /><text alignment-baseline="middle" fill="#e1ed5e" style="dominant-baseline: central; font-size:9.0px; font-family:Arial;" text-anchor="middle" x="100.0" y="100.0">2024</text><line stroke="#e1ed5e" stroke-width="0.3" x1="100.0" x2="100.0" y1="15.0" y2="10.0" /><path d="M 100.0 14.0 a86.0,86.0 0 0,1 42.35913384403234,11.155469271406648" fill="none" id="id61" stroke="none" /><text fill="#e1ed5e" style="font-size:6.75px; font-family:Arial;" text-anchor="middle"><textPath startOffset="22.145653131862478" xlink:href="#id61">January</textPath></text><line stroke="#e1ed5e" stroke-width="0.3" x1="143.13028292997686" x2="145.6673583964461" y1="26.7553504044142" y2="22.446841604673864" /><path d="M 143.63769802327073 25.89364864446614 a86.0,86.0 0 0,1 29.32050498858742,28.57503671076993" fill="none" id="id62" stroke="none" /><text fill="#e1ed5e" style="font-size:6.75px; font-family:Arial;" text-anchor="middle"><textPath startOffset="20.669276256404974" xlink:href="#id62">February</textPath></text><line stroke="#e1ed5e" stroke-width="0.3" x1="172.87174338648825" x2="177.1583165268699" y1="56.24261187166439" y2="53.66864786411523" /><path d="M 173.72905801456457 55.72781907015455 a86.0,86.0 0 0,1 12.242430191666344,42.057860355516425" fill="none" id="id63" stroke="none" /><text fill="#e1ed5e" style="font-size:6.75px; font-family:Arial;" text-anchor="middle"><textPath startOffset="22.145653131862474" xlink:href="#id63">March</textPath></text><line stroke="#e1ed5e" stroke-width="0.3" x1="184.99686870605535" x2="189.99668451229388" y1="99.2704041080226" y2="99.22748670261217" /><path d="M 185.99683186730306 99.26182062694052 a86.0,86.0 0 0,1 -10.086455211305974,41.156179273409016" fill="none" id="id64" stroke="none" /><text fill="#e1ed5e" style="font-size:6.75px; font-family:Arial;" text-anchor="middle"><textPath startOffset="21.40746469413373" xlink:href="#id64">April</textPath></text><path d="M 119.71291397450082 107.23885506374661 l 7.819098582769779 2.8712813053936235 a29.329619377965315,29.329619377965315 0 0,0 -0.17761084001326574,0.47113385457236967 l -7.768657058942074 -3.005083440160152" fill="red" stroke="none" /><path d="M 119.16976305983485 108.57439118712176 l 9.101512788238823 4.070990903610226 a30.970481531588735,30.970481531588735 0 0,0 -0.22124063622180412,0.48345071772244214 l -9.030287687161964 -4.226630603547357" fill="red" stroke="none" /><path d="M 119.0197475246899 108.90220220490707 l 5.76303694891208 2.6973922848853644 a27.363059013798704,27.363059013798704 0 0,0 -0.20277426420067016,0.4237202236448627 l -5.715883426751498 -2.795925010595331" fill="red" stroke="none" /><line stroke="#e1ed5e" stroke-width="0.3" x1="174.33088141563837" x2="178.70328620479359" y1="141.23008692659167" y2="143.65538615756765" /><path d="M 175.20536237346943 141.71514677278685 a86.0,86.0 0 0,1 -30.301960400862466,31.631185727798858" fill="none" id="id65" stroke="none" /><text fill="#e1ed5e" style="font-size:6.75px; font-family:Arial;" text-anchor="middle"><textPath startOffset="22.145653131862474" xlink:href="#id65">May</textPath></text><path d="M 118.18653347947321 110.5 l 36.07748103288993 20.829343386022604 a62.65868677204523,62.65868677204523 0 0,0 -0.5458057666357801,0.926897516285537 l -35.71460155612438 -21.44559207060169" fill="red" stroke="none" /><path d="M 113.59037401385872 116.0094264158162 l 12.461337898232063 14.679424710528917 a40.25540059427489,40.25540059427489 0 0,0 -0.5306537177661806,0.44269020471403076 l -12.207509846303989 -14.891177099154818" fill="red" stroke="none" /><path d="M 113.31354834802062 116.24036423190432 l 16.40173032693842 20.00744411481808 a46.87111473680986,46.87111473680986 0 0,0 -0.6266204454738066,0.5047610747397474 l -16.055859111109363 -20.286053483351232" fill="red" stroke="none" /><path d="M 113.03279911837588 116.46651593811092 l 19.621542672715197 24.79117818174829 a52.61656927144968,52.61656927144968 0 0,0 -0.7130548743840993,0.5544757831949286 l -19.193077853695865 -25.124355016564014" fill="red" stroke="none" /><path d="M 112.16784306229584 117.11559508785304 l 10.962825938805835 15.420587595235618 a39.920308516165605,39.920308516165605 0 0,0 -0.5619351980588843,0.3922744103318909 l -10.696495649573192 -15.606506821372632" fill="red" stroke="none" /><path d="M 111.8722381534696 117.32195027204791 l 14.490522329644103 21.142105133457118 a46.63130599208843,46.63130599208843 0 0,0 -0.6641712720532429,0.44688407285951975 l -14.125454769493857 -21.38773888037376" fill="red" stroke="none" /><path d="M 111.5731344415666 117.5232005979908 l 10.763410815810728 16.297175825299057 a40.5307181708872,40.5307181708872 0 0,0 -0.5838630753159653,0.37845299138625804 l -10.482062108237752 -16.47954265838921" fill="red" stroke="none" /><path d="M 111.27062007382361 117.71928675628689 l 17.087615650311104 26.86456997980934 a52.83852585803605,52.83852585803605 0 0,0 -0.769519837583792,0.4802372920933966 l -16.6239316839376 -27.153943068744283" fill="red" stroke="none" /><line stroke="#e1ed5e" stroke-width="0.3" x1="143.1302829299769" x2="145.66735839644613" y1="173.24464959558577" y2="177.55315839532614" /><path d="M 143.63769802327073 174.10635135553383 a86.0,86.0 0 0,1 -40.68552437913181,11.842963189579606" fill="none" id="id66" stroke="none" /><text fill="#e1ed5e" style="font-size:6.75px; font-family:Arial;" text-anchor="middle"><textPath startOffset="21.407464694133747" xlink:href="#id66">June</textPath></text><path d="M 109.06512990194946 118.94263497670748 l 12.315088175272878 25.733797809118407 a49.52875297739691,49.52875297739691 0 0,0 -0.7700808016662063,0.3604366988389501 l -11.871518659735166 -25.94141073952789" fill="red" stroke="none" /><path d="M 106.0420521117495 120.11202640906438 l 8.442557126269923 28.10252688045916 a50.34329204259912,50.34329204259912 0 0,0 -0.8298012611568768,0.24154305346960553 l -7.958895852731439 -28.243313628231284" fill="red" stroke="none" /><path d="M 104.64783097203109 120.47920084513623 l 4.962655375453623 21.866375255616777 a43.422451141544904,43.422451141544904 0 0,0 -0.7283342502176868,0.15873705992363055 l -4.5865587086168 -21.948343773674125" fill="red" stroke="none" /><path d="M 104.29559338865022 120.5559693870025 l 5.1411835195794175 24.602424270571913 a46.133862575641274,46.133862575641274 0 0,0 -0.7765944074533795,0.15534063128553474 l -4.718092626595079 -24.68705429852031" fill="red" stroke="none" /><path d="M 102.875027216393 120.80226474461374 l 2.650473198371825 19.177503731671543 a40.35979487374707,40.35979487374707 0 0,0 -0.6871200843477892,0.0889614515421545 l -2.3208752921332607 -19.220176779414093" fill="red" stroke="none" /><line stroke="#e1ed5e" stroke-width="0.3" x1="101.45913802915013" x2="101.54496967792366" y1="184.9874750549273" y2="189.98673829345242" /><path d="M 101.47630435890484 185.9873277026323 a86.0,86.0 0 0,1 -42.54439059252881,-10.42667462771756" fill="none" id="id67" stroke="none" /><text fill="#e1ed5e" style="font-size:6.75px; font-family:Arial;" text-anchor="middle"><textPath startOffset="22.145653131862474" xlink:href="#id67">July</textPath></text><path d="M 91.92203290615298 119.3841803445677 l -3.079093401070136 7.388703257973702 a29.004608173227773,29.004608173227773 0 0,0 -0.45794812993654116,-0.19547082539084656 l 3.2054766061771085 -7.334757782923451" fill="red" stroke="none" /><line stroke="#e1ed5e" stroke-width="0.3" x1="58.13341422392154" x2="55.67067388415222" y1="173.97424548756322" y2="178.32567169271397" /><path d="M 57.64086615596768 174.84453072859336 a86.0,86.0 0 0,1 -31.369924170532247,-30.572349798747897" fill="none" id="id68" stroke="none" /><text fill="#e1ed5e" style="font-size:6.75px; font-family:Arial;" text-anchor="middle"><textPath startOffset="22.145653131862474" xlink:href="#id68">August</textPath></text><line stroke="#e1ed5e" stroke-width="0.3" x1="26.387840678322732" x2="22.057713659400548" y1="142.50000000000003" y2="145.00000000000006" /><path d="M 25.521815274538298 143.00000000000003 a86.0,86.0 0 0,1 -11.493303480769221,-40.785679425670985" fill="none" id="id69" stroke="none" /><text fill="#e1ed5e" style="font-size:6.75px; font-family:Arial;" text-anchor="middle"><textPath startOffset="21.40746469413373" xlink:href="#id69">September</textPath></text><path d="M 79.17382384314188 102.69636545807758 l -18.863608848473604 2.4422718280408593 a40.021052296606875,40.021052296606875 0 0,0 -0.08236316123582567,-0.6820851272921388 l 18.90275409596909 -2.1180930238253213" fill="red" stroke="none" /><path d="M 79.0935383218832 101.97986365728391 l -20.082575665082164 1.9018407952584746 a41.17242781011397,41.17242781011397 0 0,0 -0.06059478992140058,-0.7042033094208525 l 20.112264077701305 -1.55681643846196" fill="red" stroke="none" /><path d="M 79.06263194458094 101.62068470465958 l -62.48541089322545 4.836765988493408 a83.67232945824388,83.67232945824388 0 0,0 -0.0985581900423098,-1.4330144526657935 l 62.55923304443282 -3.763408111673271" fill="red" stroke="none" /><line stroke="#e1ed5e" stroke-width="0.3" x1="15.003131293944662" x2="10.003315487706104" y1="100.72959589197737" y2="100.7725132973878" /><path d="M 14.003168132696942 100.73817937305945 a86.0,86.0 0 0,1 10.791469493833604,-42.45332614584628" fill="none" id="id70" stroke="none" /><text fill="#e1ed5e" style="font-size:6.75px; font-family:Arial;" text-anchor="middle"><textPath startOffset="22.145653131862435" xlink:href="#id70">October</textPath></text><path d="M 79.00696218219943 99.45929381324524 l -62.84344045142139 -1.6186241049985408 a83.8642820030948,83.8642820030948 0 0,0 0.049421273312985646,-1.4388464491686437 l 62.806394491111554 2.697176818731323" fill="red" stroke="none" /><path d="M 79.01933749520258 99.09900007780938 l -62.941987514392274 -2.7029997665718684 a84.0,84.0 0 0,0 0.07423364217371864,-1.440112826493152 l 62.886312282761985 3.7830843864417325" fill="red" stroke="none" /><path d="M 79.0935383218832 98.0201363427161 l -62.48562481565936 -5.91745363610209 a83.76519390664512,83.76519390664512 0 0,0 0.14785596816327876,-1.430372367857993 l 62.37483645501441 6.989230526242996" fill="red" stroke="none" /><line stroke="#e1ed5e" stroke-width="0.3" x1="26.387840678322718" x2="22.05771365940052" y1="57.49999999999999" y2="54.99999999999999" /><path d="M 25.521815274538284 56.99999999999999 a86.0,86.0 0 0,1 29.574782752854787,-30.34633250058573" fill="none" id="id71" stroke="none" /><text fill="#e1ed5e" style="font-size:6.75px; font-family:Arial;" text-anchor="middle"><textPath startOffset="21.40746469413373" xlink:href="#id71">November</textPath></text><line stroke="#e1ed5e" stroke-width="0.3" x1="56.869717070023135" x2="54.33264160355391" y1="26.7553504044142" y2="22.446841604673864" /><path d="M 56.362301976729285 25.89364864446614 a86.0,86.0 0 0,1 42.16139366436587,-11.88097634709845" fill="none" id="id72" stroke="none" /><text fill="#e1ed5e" style="font-size:6.75px; font-family:Arial;" text-anchor="middle"><textPath startOffset="22.145653131862474" xlink:href="#id72">December</textPath></text></svg>