<?xml version="1.0" encoding="utf-8" ?>
<svg baseProfile="full" height="200mm" version="1.1" viewBox="0,0,200,200" width="200mm" xmlns="http://www.w3.org/2000/svg" xmlns:ev="http://www.w3.org/2001/xml-events" xmlns:xlink="http://www.w3.org/1999/xlink"><defs /><rect fill="#1a1a1a" height="200" width="200" x="0" y="0" /><text alignment-baseline="middle" fill="#e1ed5e" style="dominant-baseline: central; font-size:9.0px; font-family:Arial;" text-anchor="middle" x="100.0" y="100.0">2024</text><line stroke="#e1ed5e" stroke-width="0.3" x1="100.0" x2="100.0" y1="15.0" y2="10.0" /><path d="M 100.0 14.0 a86.0,86.0 0 0,1 42.35913384403234,11.155469271406648" fill="none" id="id97" stroke="none" /><text fill="#e1ed5e" style="font-size:6.75px; font-family:Arial;" text-anchor="middle"><textPath startOffset="22.145653131862478" xlink:href="#id97">January</textPath></text><line stroke="#e1ed5e" stroke-width="0.3" x1="143.13028292997686" x2="145.6673583964461" y1="26.7553504044142" y2="22.446841604673864" /><path d="M 143.63769802327073 25.89364864446614 a86.0,86.0 0 0,1 29.32050498858742,28.57503671076993" fill="none" id="id98" stroke="none" /><text fill="#e1ed5e" style="font-size:6.75px; font-family:Arial;" text-anchor="middle"><textPath startOffset="20.669276256404974" xlink:href="#id98">February</textPath></text><line stroke="#e1ed5e" stroke-width="0.3" x1="172.87174338648825" x2="177.1583165268699" y1="56.24261187166439" y2="53.66864786411523" /><path d="M 173.72905801456457 55.72781907015455 a86.0,86.0 0 0,1 12.242430191666344,42.057860355516425" fill="none" id="id99" stroke="none" /><text fill="#e1ed5e" style="font-size:6.75px; font-family:Arial;" text-anchor="middle"><textPath startOffset="22.145653131862474" xlink:href="#id99">March</textPath></text><line stroke="#e1ed5e" stroke-width="0.3" x1="184.99686870605535" x2="189.99668451229388" y1="99.2704041080226" y2="99.22748670261217" /><path d="M 185.99683186730306 99.26182062694052 a86.0,86.0 0 0,1 -10.086455211305974,41.156179273409016" fill="none" id="id100" stroke="none" /><text fill="#e1ed5e" style="font-size:6.75px; font-family:Arial;" text-anchor="middle"><textPath startOffset="21.40746469413373" xlink:href="#id100">April</textPath></text><path d="M 119.83427380445688 106.89939002012753 l 2.5784904571931926 0.8969328296433648 a23.730036911605485,23.730036911605485 0 0,0 -0.13713682116397105,0.38359609596573807 l -2.5627134659852784 -0.9410638819900244" fill="#ff1202" stroke="none" /><path d="M 119.71291397450082 107.23885506374661 l 1.8475055738459136 0.6784296373348947 a22.96813201239299,22.96813201239299 0 0,0 -0.13908769724169867,0.36894664154610096 l -1.8355871927897742 -0.7100445590751545" fill="#ff0701" stroke="none" /><path d="M 119.16976305983485 108.57439118712176 l 2.150515871964441 0.9618983960721024 a23.355836802483793,23.355836802483793 0 0,0 -0.16684468365155153,0.3645857444499923 l -2.133686723457833 -0.9986731227367835" fill="#ff0d01" stroke="none" /><path d="M 119.0197475246899 108.90220220490707 l 1.3616969747455745 0.6373429402918945 a22.503470875863968,22.503470875863968 0 0,0 -0.16676223029426002,0.3484689232844294 l -1.3505554864914027 -0.6606243656414275" fill="#ff0000" stroke="none" /><line stroke="#e1ed5e" stroke-width="0.3" x1="174.33088141563837" x2="178.70328620479359" y1="141.23008692659167" y2="143.65538615756765" /><path d="M 175.20536237346943 141.71514677278685 a86.0,86.0 0 0,1 -30.301960400862466,31.631185727798858" fill="none" id="id101" stroke="none" /><text fill="#e1ed5e" style="font-size:6.75px; font-family:Arial;" text-anchor="middle"><textPath startOffset="22.145653131862474" xlink:href="#id101">May</textPath></text><path d="M 118.18653347947321 110.5 l 8.524428563346438 4.921581125735798 a30.8431622514716,30.8431622514716 0 0,0 -0.2686678685013035,0.4562567771215309 l -8.43868698471537 -5.067189071150878" fill="#ff760a" stroke="none" /><path d="M 113.59037401385872 116.0094264158162 l 2.9443791993227157 3.468471293265971 a25.549688119158763,25.549688119158763 0 0,0 -0.33680044883533544,0.2809709131414934 l -2.8844044163254856 -3.5185043903193347" fill="#ff2c04" stroke="none" /><path d="M 113.31354834802062 116.24036423190432 l 3.87541963807831 4.727381824036705 a27.112856638384024,27.112856638384024 0 0,0 -0.3624720768902282,0.2919818470907329 l -3.793696790832829 -4.793211964920841" fill="#ff4306" stroke="none" /><path d="M 113.03279911837588 116.46651593811092 l 4.6362005890524935 5.8576879915437345 a28.470399220135853,28.470399220135853 0 0,0 -0.3858282138245499,0.30002235273105976 l -4.534962430592713 -5.936411395895587" fill="#ff5607" stroke="none" /><path d="M 112.16784306229584 117.11559508785304 l 2.5903090762505467 3.643594109039231 a25.470512178926633,25.470512178926633 0 0,0 -0.35853373478139444,0.2502843920104899 l -2.527380250295394 -3.687523316854843" fill="#ff2b04" stroke="none" /><path d="M 111.8722381534696 117.32195027204791 l 3.423837222227844 4.995480829845471 a27.056194353359746,27.056194353359746 0 0,0 -0.38536229338375233,0.2592889491613108 l -3.337578640747088 -5.053519453063903" fill="#ff4206" stroke="none" /><path d="M 111.5731344415666 117.5232005979908 l 2.543191042458968 3.8507153806112084 a25.61474047167544,25.61474047167544 0 0,0 -0.36899176279474677,0.23917600261155264 l -2.4767136474072116 -3.8938052249266555" fill="#ff2d04" stroke="none" /><path d="M 111.27062007382361 117.71928675628689 l 4.037481408311327 6.347591381702458 a28.522843376777356,28.522843376777356 0 0,0 -0.415395650168153,0.2592376082343785 l -3.927921629353459 -6.4159647867783836" fill="#ff5608" stroke="none" /><line stroke="#e1ed5e" stroke-width="0.3" x1="143.1302829299769" x2="145.66735839644613" y1="173.24464959558577" y2="177.55315839532614" /><path d="M 143.63769802327073 174.10635135553383 a86.0,86.0 0 0,1 -40.68552437913181,11.842963189579606" fill="none" id="id102" stroke="none" /><text fill="#e1ed5e" style="font-size:6.75px; font-family:Arial;" text-anchor="middle"><textPath startOffset="21.407464694133747" xlink:href="#id102">June</textPath></text><path d="M 109.06512990194946 118.94263497670748 l 2.9098231471793237 6.080411237343502 a27.74080644753087,27.74080644753087 0 0,0 -0.4313183995916627,0.20187878955162414 l -2.8050160337161545 -6.12946625846566" fill="#ff4b07" stroke="none" /><path d="M 106.0420521117495 120.11202640906438 l 1.99481707298938 6.640097256890104 a27.933266671320915,27.933266671320915 0 0,0 -0.46042002760725226,0.1340215598030899 l -1.8805370330005209 -6.673362510995712" fill="#ff4e07" stroke="none" /><path d="M 104.64783097203109 120.47920084513623 l 1.1725818993292647 5.16661220432496 a26.298002451916595,26.298002451916595 0 0,0 -0.4411021348289115,0.09613615724902504 l -1.0837173478812174 -5.185979819707704" fill="#ff3705" stroke="none" /><path d="M 104.29559338865022 120.5559693870025 l 1.2147647338170657 5.813089001098465 a26.938657852850053,26.938657852850053 0 0,0 -0.45347191552673966,0.09070708332703675 l -1.1147963327593673 -5.8330854810883634" fill="#ff4006" stroke="none" /><path d="M 102.875027216393 120.80226474461374 l 0.6262568447610692 4.531282559192816 a25.574354519148585,25.574354519148585 0 0,0 -0.43539994911540447,0.05637124042364812 l -0.5483790737548894 -4.541365395816858" fill="#ff2d04" stroke="none" /><line stroke="#e1ed5e" stroke-width="0.3" x1="101.45913802915013" x2="101.54496967792366" y1="184.9874750549273" y2="189.98673829345242" /><path d="M 101.47630435890484 185.9873277026323 a86.0,86.0 0 0,1 -42.54439059252881,-10.42667462771756" fill="none" id="id103" stroke="none" /><text fill="#e1ed5e" style="font-size:6.75px; font-family:Arial;" text-anchor="middle"><textPath startOffset="22.145653131862474" xlink:href="#id103">July</textPath></text><path d="M 91.92203290615298 119.3841803445677 l -1.340592211763259 3.2169332827730415 a24.485089270600287,24.485089270600287 0 0,0 -0.38659032302151747,-0.1650124208163084 l 1.3956176099552076 -3.193446212297329" fill="#ff1d02" stroke="none" /><line stroke="#e1ed5e" stroke-width="0.3" x1="58.13341422392154" x2="55.67067388415222" y1="173.97424548756322" y2="178.32567169271397" /><path d="M 57.64086615596768 174.84453072859336 a86.0,86.0 0 0,1 -31.369924170532247,-30.572349798747897" fill="none" id="id104" stroke="none" /><text fill="#e1ed5e" style="font-size:6.75px; font-family:Arial;" text-anchor="middle"><textPath startOffset="22.145653131862474" xlink:href="#id104">August</textPath></text><path d="M 84.58840730492382 114.26474011684316 l -8.86861679259127 8.208659302461546 a33.08447149683098,33.08447149683098 0 0,0 -0.38220804055059837,-0.42011358955895123 l 9.008222533983746 -8.05520813734492" fill="#ff950d" stroke="none" /><line stroke="#e1ed5e" stroke-width="0.3" x1="26.387840678322732" x2="22.057713659400534" y1="142.50000000000003" y2="145.00000000000006" /><path d="M 25.521815274538284 143.00000000000003 a86.0,86.0 0 0,1 -11.493303480769212,-40.785679425670985" fill="none" id="id105" stroke="none" /><text fill="#e1ed5e" style="font-size:6.75px; font-family:Arial;" text-anchor="middle"><textPath startOffset="21.40746469413373" xlink:href="#id105">September</textPath></text><path d="M 80.5471966667186 107.91128576633889 l -5.467888919851777 2.2237428221739273 a26.902782511579424,26.902782511579424 0 0,0 -0.17030912162797826,-0.4292902406549976 l 5.50525671644588 -2.1295515643053644" fill="#ff4006" stroke="none" /><path d="M 79.83685265289637 105.86919833188381 l -9.393973875747506 2.734448885987895 a30.783862012942897,30.783862012942897 0 0,0 -0.14333773559017923,-0.5086550566740363 l 9.43953010341226 -2.572785905410863" fill="#ff760a" stroke="none" /><path d="M 79.17382384314188 102.69636545807758 l -4.457115116466387 0.5770627863799104 a25.494316034821953,25.494316034821953 0 0,0 -0.05246719767913659,-0.43450366244647376 l 4.466364400405185 -0.5004654470100374" fill="#ff2b04" stroke="none" /><path d="M 79.0935383218832 101.97986365728391 l -4.74513399283407 0.4493691226185975 a25.766364360633,25.766364360633 0 0,0 -0.03792118945891467,-0.4407017030471062 l 4.752148804990726 -0.3678463721958293" fill="#ff2f04" stroke="none" /><path d="M 79.06263194458094 101.62068470465958 l -29.491781485502255 2.282850406039695 a50.58000306228803,50.58000306228803 0 0,0 -0.05957852000094443,-0.8662586051259686 l 29.526623966668264 -1.7762483767593833" fill="#94ff23" stroke="none" /><line stroke="#e1ed5e" stroke-width="0.3" x1="15.003131293944662" x2="10.003315487706104" y1="100.72959589197737" y2="100.7725132973878" /><path d="M 14.003168132696942 100.73817937305945 a86.0,86.0 0 0,1 10.791469493833604,-42.45332614584628" fill="none" id="id106" stroke="none" /><text fill="#e1ed5e" style="font-size:6.75px; font-family:Arial;" text-anchor="middle"><textPath startOffset="22.145653131862435" xlink:href="#id106">October</textPath></text><path d="M 79.00696218219943 99.45929381324524 l -29.600783997174407 -0.7624111945576632 a50.61060087328461,50.61060087328461 0 0,0 0.02982485843258906,-0.8683182114899611 l 29.583334451744967 1.270435670611763" fill="#94ff23" stroke="none" /><path d="M 79.01933749520258 99.09900007780938 l -29.63011589426081 -1.2724446670415517 a50.657425433405535,50.657425433405535 0 0,0 0.04476768086982453,-0.868481049092473 l 29.603906623934417 1.7808975095107367" fill="#94ff23" stroke="none" /><path d="M 79.0935383218832 98.0201363427161 l -29.42601834727137 -2.786674531602511 a50.557674311742346,50.557674311742346 0 0,0 0.08924057278226366,-0.8633215891468646 l 29.373845382007442 3.2914006430322886" fill="#95ff23" stroke="none" /><path d="M 79.34024301695615 96.23510406497455 l -14.546899085406915 -2.6509295960656005 a35.78647019150646,35.78647019150646 0 0,0 0.11532395828539185,-0.6034236810154374 l 14.499248834839364 2.9002558421143525" fill="#ffb811" stroke="none" /><path d="M 79.64726062577567 94.8264132398404 l -28.693052272609773 -7.293661684389286 a50.60555267994579,50.60555267994579 0 0,0 0.22124390789093484,-0.840099154819961 l 28.563618883914113 7.785141343582032" fill="#94ff23" stroke="none" /><path d="M 80.41425534168474 92.42381321644754 l -15.363808621989497 -5.943051227185689 a37.473204705280395,37.473204705280395 0 0,0 0.23722559460882733,-0.5979634656422211 l 15.259524352414537 6.205915710041492" fill="#ffce13" stroke="none" /><path d="M 80.83023694016515 91.42560881287825 l -27.59121640494186 -12.341200151826 a51.225493277889825,51.225493277889825 0 0,0 0.3659342755784213,-0.7996324327609796 l 27.375297664508395 12.81302156680165" fill="#8dff24" stroke="none" /><path d="M 80.9802524753101 91.09779779509293 l -26.755744405354662 -12.523039358439732 a50.541434857800965,50.541434857800965 0 0,0 0.3745378855401005,-0.7826401306404134 l 26.536827261854658 12.980491991145232" fill="#95ff23" stroke="none" /><line stroke="#e1ed5e" stroke-width="0.3" x1="26.387840678322718" x2="22.05771365940052" y1="57.49999999999999" y2="54.99999999999999" /><path d="M 25.521815274538284 56.99999999999999 a86.0,86.0 0 0,1 29.574782752854787,-30.34633250058573" fill="none" id="id107" stroke="none" /><text fill="#e1ed5e" style="font-size:6.75px; font-family:Arial;" text-anchor="middle"><textPath startOffset="21.40746469413373" xlink:href="#id107">November</textPath></text><path d="M 82.18462484594161 88.88188828441811 l -53.44612546217515 -33.35433514674566 a84.0,84.0 0 0,0 0.7739292334964403,-1.2167453012853122 l 52.865678537052815 34.266894122709644" fill="#4dd2ff" stroke="none" /><line stroke="#e1ed5e" stroke-width="0.3" x1="56.869717070023135" x2="54.33264160355391" y1="26.7553504044142" y2="22.446841604673864" /><path d="M 56.362301976729285 25.89364864446614 a86.0,86.0 0 0,1 42.16139366436587,-11.88097634709845" fill="none" id="id108" stroke="none" /><text fill="#e1ed5e" style="font-size:6.75px; font-family:Arial;" text-anchor="middle"><textPath startOffset="22.145653131862474" xlink:href="#id108">December</textPath></text><path d="M 90.61103034731259 81.2157712731953 l -1.3719809598417094 -2.7448809732930735 a24.068664744105245,24.068664744105245 0 0,0 0.3711614472060121,-0.18155366296576697 l 1.3246592633736443 2.768028386356055" fill="#ff1702" stroke="none" /></svg>