<?xml version="1.0" encoding="utf-8" ?>
<svg baseProfile="full" height="200mm" version="1.1" viewBox="0,0,200,200" width="200mm" xmlns="http://www.w3.org/2000/svg" xmlns:ev="http://www.w3.org/2001/xml-events" xmlns:xlink="http://www.w3.org/1999/xlink"><defs /><rect fill="#1a1a1a" height="200" width="200" x="0" y="0" /><text alignment-baseline="middle" fill="#e1ed5e" style="dominant-baseline: central; font-size:9.0px; font-family:Arial;" text-anchor="middle" x="100.0" y="100.0">2025</text><line stroke="#e1ed5e" stroke-width="0.3" x1="100.0" x2="100.0" y1="15.0" y2="10.0" /><path d="M 100.0 14.0 a86.0,86.0 0 0,1 42.46469731375804,11.215312516191453" fill="none" id="id109" stroke="none" /><text fill="#e1ed5e" style="font-size:6.75px; font-family:Arial;" text-anchor="middle"><textPath startOffset="22.20632615414155" xlink:href="#id109">January</textPath></text><path d="M 109.73455568895987 81.39251694778311 l 19.460394184692614 -37.198303297170746 a62.98119471872998,62.98119471872998 0 0,0 0.9562793291253344,0.5108112995683375 l -20.09781856034626 36.85781327110065" fill="red" stroke="none" /><path d="M 110.05341064243156 81.56283822128135 l 7.301384378985888 -13.390162780758859 a36.25144823106707,36.25144823106707 0 0,0 0.5452837729736321,0.30344982929361164 l -7.5307922410315555 13.262497553905067" fill="red" stroke="none" /><line stroke="#e1ed5e" stroke-width="0.3" x1="143.23703022742887" x2="145.7803849466894" y1="26.81831364943548" y2="22.513508569990506" /><path d="M 143.74570117128098 25.957352633546492 a86.0,86.0 0 0,1 28.547481713284135,27.462654790039103" fill="none" id="id110" stroke="none" /><text fill="#e1ed5e" style="font-size:6.75px; font-family:Arial;" text-anchor="middle"><textPath startOffset="19.985693538727396" xlink:href="#id110">February</textPath></text><line stroke="#e1ed5e" stroke-width="0.3" x1="172.23445277983987" x2="176.4835382374775" y1="55.19839476539836" y2="52.563006222186495" /><path d="M 173.08426987136738 54.67131705675599 a86.0,86.0 0 0,1 12.851231095245387,41.99856678651699" fill="none" id="id111" stroke="none" /><text fill="#e1ed5e" style="font-size:6.75px; font-family:Arial;" text-anchor="middle"><textPath startOffset="22.20632615414155" xlink:href="#id111">March</textPath></text><path d="M 119.34039704204932 91.81776055985345 l 11.96859797989793 -5.063491417547568 a33.995625530923654,33.995625530923654 0 0,0 0.22336471733358884,0.5408953801537391 l -12.053984384117717 4.856721466940526" fill="red" stroke="none" /><path d="M 120.37134235888165 94.90015583598534 l 20.665241332655576 -5.17342002071598 a42.30296866748016,42.30296866748016 0 0,0 0.17075734259983752,0.7078994254477115 l -20.751231475516235 4.816935363608863" fill="red" stroke="none" /><line stroke="#e1ed5e" stroke-width="0.3" x1="184.98032266829074" x2="189.97916517819016" y1="98.17113171792111" y2="98.06355123074" /><path d="M 185.9800911702706 98.14961562048488 a86.0,86.0 0 0,1 -9.607161424134198,41.387399972396054" fill="none" id="id112" stroke="none" /><text fill="#e1ed5e" style="font-size:6.75px; font-family:Arial;" text-anchor="middle"><textPath startOffset="21.466115282336823" xlink:href="#id112">April</textPath></text><path d="M 120.76222939487914 103.15116336523771 l 38.86201955759091 5.898238093797175 a60.307070314457405,60.307070314457405 0 0,0 -0.1646045461921486,1.0249926662658186 l -38.75473325703748 -6.566309989756198" fill="red" stroke="none" /><path d="M 120.5718875245553 104.21870165774334 l 37.458268468281446 7.681612058918252 a59.23779596767531,59.23779596767531 0 0,0 -0.2134421321780696,0.9971305829913242 l -37.320492297378934 -8.325256461325745" fill="red" stroke="none" /><path d="M 120.32669344350535 105.2749913415812 l 15.887314809905396 4.122925762429049 a37.41357026096213,37.41357026096213 0 0,0 -0.16713519033823493,0.6219722190655024 l -15.813991543225384 -4.395788914670099" fill="red" stroke="none" /><path d="M 120.23288151984713 105.62410040840565 l 12.17546804631956 3.384394592765513 a33.63709416386889,33.63709416386889 0 0,0 -0.15986807958617755,0.5565217577611761 l -12.115407329847283 -3.593473826031271" fill="red" stroke="none" /><line stroke="#e1ed5e" stroke-width="0.3" x1="174.80103733775053" x2="179.2010983576182" y1="140.37084112569926" y2="142.7455964860345" /><path d="M 175.68104954172406 140.8457921977663 a86.0,86.0 0 0,1 -30.038265399797805,32.042727171017184" fill="none" id="id113" stroke="none" /><text fill="#e1ed5e" style="font-size:6.75px; font-family:Arial;" text-anchor="middle"><textPath startOffset="22.206326154141568" xlink:href="#id113">May</textPath></text><path d="M 118.30583269289576 110.29060199501025 l 34.691481417462036 19.501774864518506 a60.79721228684843,60.79721228684843 0 0,0 -0.5206789175852244,0.9078475809664128 l -34.35065050372443 -20.096042291343235" fill="red" stroke="none" /><path d="M 117.94076556474637 110.91462005526583 l 53.8222966942391 32.74386016579747 a84.0,84.0 0 0,0 -0.7621414413281484,1.228814674538906 l -53.25069061324299 -33.665471171701654" fill="red" stroke="none" /><path d="M 116.498646956653 112.99209946851258 l 30.375605958789514 23.919712632786457 a59.66303259961294,59.66303259961294 0 0,0 -0.6423210944409433,0.8013943266982999 l -29.959366952293717 -24.439034793063005" fill="red" stroke="none" /><path d="M 112.34349029814194 116.9893568818739 l 15.700061765954532 21.609281164940537 a47.71054046477235,47.71054046477235 0 0,0 -0.6685670586829752,0.47700484481392974 l -15.325767379422672 -21.876330271598686" fill="red" stroke="none" /><line stroke="#e1ed5e" stroke-width="0.3" x1="143.8653032363475" x2="146.44561519142675" y1="172.8068346515853" y2="177.08958963109032" /><path d="M 144.38136562736335 173.6633856474863 a86.0,86.0 0 0,1 -40.68145358897372,12.25698825130547" fill="none" id="id114" stroke="none" /><text fill="#e1ed5e" style="font-size:6.75px; font-family:Arial;" text-anchor="middle"><textPath startOffset="21.466115282336833" xlink:href="#id114">June</textPath></text><path d="M 108.92500713936063 119.00905698771935 l 13.576088374878278 28.915230381189694 a52.94371179997373,52.94371179997373 0 0,0 -0.8282716071027378,0.38021887066392734 l -13.07634877200812 -29.144636322187694" fill="red" stroke="none" /><path d="M 108.2653958097858 119.30500536409082 l 15.054396316855112 35.16167989268606 a59.248903008330366,59.248903008330366 0 0,0 -0.9410095307973768,0.39334206019143614 l -14.446915326560273 -35.41560699589746" fill="red" stroke="none" /><path d="M 106.2309692047433 120.05430185196036 l 11.94466431815246 38.44376306244928 a61.256650681286,61.256650681286 0 0,0 -1.009640942036431,0.3041965336246388 l -11.281148401675784 -38.64367496517965" fill="red" stroke="none" /><line stroke="#e1ed5e" stroke-width="0.3" x1="102.19456741930631" x2="102.32365962044197" y1="184.97166512339345" y2="189.96999836594603" /><path d="M 102.22038585953345 185.97133177190398 a86.0,86.0 0 0,1 -42.740103519485714,-10.115201625700543" fill="none" id="id115" stroke="none" /><text fill="#e1ed5e" style="font-size:6.75px; font-family:Arial;" text-anchor="middle"><textPath startOffset="22.20632615414155" xlink:href="#id115">July</textPath></text><path d="M 90.10565033884886 118.52300852407294 l -17.784636292755135 33.29425186393847 a58.746529578822916,58.746529578822916 0 0,0 -0.887848017628693,-0.4841255295374634 l 18.355107122252466 -32.983185682641235" fill="red" stroke="none" /><line stroke="#e1ed5e" stroke-width="0.3" x1="58.666819895761336" x2="56.23545636021788" y1="174.27360380694188" y2="178.64263932499728" /><path d="M 58.180547188652646 175.14741091055294 a86.0,86.0 0 0,1 -31.652253787137756,-30.449443065178592" fill="none" id="id116" stroke="none" /><text fill="#e1ed5e" style="font-size:6.75px; font-family:Arial;" text-anchor="middle"><textPath startOffset="22.20632615414155" xlink:href="#id116">August</textPath></text><path d="M 84.67929136418377 114.36230785411682 l -32.921368488693155 30.861942515379035 a66.12511494712095,66.12511494712095 0 0,0 -0.7713135441901232,-0.8371085159432852 l 33.447728440879004 -30.290682744634406" fill="red" stroke="none" /><line stroke="#e1ed5e" stroke-width="0.3" x1="26.63291911575756" x2="22.317208475507996" y1="142.92168965132927" y2="145.44649492493687" /><path d="M 25.769776987707644 143.4266507060508 a86.0,86.0 0 0,1 -11.730757126820373,-40.83630448921669" fill="none" id="id117" stroke="none" /><text fill="#e1ed5e" style="font-size:6.75px; font-family:Arial;" text-anchor="middle"><textPath startOffset="21.46611528233685" xlink:href="#id117">September</textPath></text><line stroke="#e1ed5e" stroke-width="0.3" x1="15.007084014347285" x2="10.007500721073583" y1="101.09737516637583" y2="101.16192664675087" /><path d="M 14.007167355692545 101.11028546245083 a86.0,86.0 0 0,1 10.666146001902534,-42.60595125391555" fill="none" id="id118" stroke="none" /><text fill="#e1ed5e" style="font-size:6.75px; font-family:Arial;" text-anchor="middle"><textPath startOffset="22.20632615414155" xlink:href="#id118">October</textPath></text><line stroke="#e1ed5e" stroke-width="0.3" x1="26.266209847984243" x2="21.928928074336255" y1="57.711370442889674" y2="55.22380399835377" /><path d="M 25.398753493254645 57.213857153982495 a86.0,86.0 0 0,1 29.58750427330803,-30.492523968695096" fill="none" id="id119" stroke="none" /><text fill="#e1ed5e" style="font-size:6.75px; font-family:Arial;" text-anchor="middle"><textPath startOffset="21.46611528233685" xlink:href="#id119">November</textPath></text><line stroke="#e1ed5e" stroke-width="0.3" x1="56.762969772571076" x2="54.21961505331055" y1="26.818313649435495" y2="22.513508569990535" /><path d="M 56.25429882871897 25.957352633546506 a86.0,86.0 0 0,1 42.265352541879196,-11.944610805530505" fill="none" id="id120" stroke="none" /><text fill="#e1ed5e" style="font-size:6.75px; font-family:Arial;" text-anchor="middle"><textPath startOffset="22.20632615414155" xlink:href="#id120">December</textPath></text></svg>