<?xml version="1.0" encoding="utf-8" ?>
<svg baseProfile="full" height="200mm" version="1.1" viewBox="0,0,200,200" width="200mm" xmlns="http://www.w3.org/2000/svg" xmlns:ev="http://www.w3.org/2001/xml-events" xmlns:xlink="http://www.w3.org/1999/xlink"><defs /><rect fill="#1a1a1a" height="200" width="200" x="0" y="0" /><text alignment-baseline="middle" fill="#e1ed5e" style="dominant-baseline: central; font-size:9.0px; font-family:Arial;" text-anchor="middle" x="100.0" y="100.0">2024</text><line stroke="#e1ed5e" stroke-width="0.3" x1="100.0" x2="100.0" y1="15.0" y2="10.0" /><path d="M 100.0 14.0 a86.0,86.0 0 0,1 42.35913384403234,11.155469271406648" fill="none" id="id97" stroke="none" /><text fill="#e1ed5e" style="font-size:6.75px; font-family:Arial;" text-anchor="middle"><textPath startOffset="22.145653131862478" xlink:href="#id97">January</textPath></text><line stroke="#e1ed5e" stroke-width="0.3" x1="143.13028292997686" x2="145.6673583964461" y1="26.7553504044142" y2="22.446841604673864" /><path d="M 143.63769802327073 25.89364864446614 a86.0,86.0 0 0,1 29.32050498858742,28.57503671076993" fill="none" id="id98" stroke="none" /><text fill="#e1ed5e" style="font-size:6.75px; font-family:Arial;" text-anchor="middle"><textPath startOffset="20.669276256404974" xlink:href="#id98">February</textPath></text><line stroke="#e1ed5e" stroke-width="0.3" x1="172.87174338648825" x2="177.1583165268699" y1="56.24261187166439" y2="53.66864786411523" /><path d="M 173.72905801456457 55.72781907015455 a86.0,86.0 0 0,1 12.242430191666344,42.057860355516425" fill="none" id="id99" stroke="none" /><text fill="#e1ed5e" style="font-size:6.75px; font-family:Arial;" text-anchor="middle"><textPath startOffset="22.145653131862474" xlink:href="#id99">March</textPath></text><line stroke="#e1ed5e" stroke-width="0.3" x1="184.99686870605535" x2="189.99668451229388" y1="99.2704041080226" y2="99.22748670261217" /><path d="M 185.99683186730306 99.26182062694052 a86.0,86.0 0 0,1 -10.086455211305974,41.156179273409016" fill="none" id="id100" stroke="none" /><text fill="#e1ed5e" style="font-size:6.75px; font-family:Arial;" text-anchor="middle"><textPath startOffset="21.40746469413373" xlink:href="#id100">April</textPath></text><path d="M 119.83427380445688 106.89939002012753 l 1.2892713582916357 0.44847550408600145 a22.365046121226808,22.365046121226808 0 0,0 -0.12924848543959297,0.3615310170040458 l -1.2813827028080995 -0.4705414774709687" fill="#ff0901" stroke="none" /><path d="M 119.71291397450082 107.23885506374661 l 0.923771509023359 0.33922169368204313 a21.984085950691203,21.984085950691203 0 0,0 -0.1331286274911411,0.35313950105267106 l -0.9178121977177773 -0.3550294749288731" fill="#ff0300" stroke="none" /><path d="M 119.16976305983485 108.57439118712176 l 1.0752797287035243 0.4809589456430981 a22.1779422746276,22.1779422746276 0 0,0 -0.15843027994009212,0.3461987537823596 l -1.0668649839083761 -0.4993466816401466" fill="#ff0601" stroke="none" /><path d="M 119.0197475246899 108.90220220490707 l 0.6808622864258669 0.3186779287995436 a21.75175067368179,21.75175067368179 0 0,0 -0.16119159907187355,0.33682844653706095 l -0.6752914293940814 -0.33031887740170807" fill="#ff0000" stroke="none" /><line stroke="#e1ed5e" stroke-width="0.3" x1="174.33088141563837" x2="178.70328620479359" y1="141.23008692659167" y2="143.65538615756765" /><path d="M 175.20536237346943 141.71514677278685 a86.0,86.0 0 0,1 -30.301960400862466,31.631185727798858" fill="none" id="id101" stroke="none" /><text fill="#e1ed5e" style="font-size:6.75px; font-family:Arial;" text-anchor="middle"><textPath startOffset="22.145653131862474" xlink:href="#id101">May</textPath></text><path d="M 118.18653347947321 110.5 l 4.262300665828 2.4608404367829158 a25.921680873565833,25.921680873565833 0 0,0 -0.22579794806674383,0.3834542799638414 l -4.219429007631491 -2.5336458850403063" fill="#ff3c05" stroke="none" /><path d="M 113.59037401385872 116.0094264158162 l 1.4722194371697146 1.7342707951428045 a23.27489016483556,23.27489016483556 0 0,0 -0.3068136651042555,0.25595487163610553 l -1.4422314379035641 -1.75928785069078" fill="#ff1602" stroke="none" /><path d="M 113.31354834802062 116.24036423190432 l 1.9377490914487219 2.3637388179724197 a24.05649026515708,24.05649026515708 0 0,0 -0.3216114814237722,0.25906744375274526 l -1.8968868396696972 -2.3966545555185688" fill="#ff2103" stroke="none" /><path d="M 113.03279911837588 116.46651593811092 l 2.318147276475394 2.9289033559298354 a24.735275312986627,24.735275312986627 0 0,0 -0.33521016051360364,0.26066144831590937 l -2.26752717132656 -2.9682658558665382" fill="#ff2b04" stroke="none" /><path d="M 112.16784306229584 117.11559508785304 l 1.2951807875868655 1.8218339776746548 a23.235301392372847,23.235301392372847 0 0,0 -0.3270699595067914,0.22832023326888587 l -1.2637157369063157 -1.8437990267486626" fill="#ff1502" stroke="none" /><path d="M 111.8722381534696 117.32195027204791 l 1.7119533073146531 2.497791037716511 a24.028158548445326,24.028158548445326 0 0,0 -0.34223387676351036,0.23027022569913297 l -1.6688231424541393 -2.526810937472765" fill="#ff2103" stroke="none" /><path d="M 111.5731344415666 117.5232005979908 l 1.271621293210211 1.9253967123691915 a23.30741700031609,23.30741700031609 0 0,0 -0.3357537389320403,0.21763151711415796 l -1.238381922021161 -1.946942071187244" fill="#ff1602" stroke="none" /><path d="M 111.27062007382361 117.71928675628689 l 2.0187816188534997 3.173860015551978 a24.76149792276167,24.76149792276167 0 0,0 -0.3606168709371181,0.22505159857321802 l -1.9640006191266666 -3.208047410966744" fill="#ff2b04" stroke="none" /><line stroke="#e1ed5e" stroke-width="0.3" x1="143.1302829299769" x2="145.66735839644613" y1="173.24464959558577" y2="177.55315839532614" /><path d="M 143.63769802327073 174.10635135553383 a86.0,86.0 0 0,1 -40.68552437913181,11.842963189579606" fill="none" id="id102" stroke="none" /><text fill="#e1ed5e" style="font-size:6.75px; font-family:Arial;" text-anchor="middle"><textPath startOffset="21.407464694133747" xlink:href="#id102">June</textPath></text><path d="M 109.06512990194946 118.94263497670748 l 1.4549410609167315 3.040267235844275 a24.370471533196756,24.370471533196756 0 0,0 -0.3789159049458056,0.17735177610029357 l -1.4025364420994195 -3.064795243515102" fill="#ff2603" stroke="none" /><path d="M 106.0420521117495 120.11202640906438 l 0.9974287514082775 3.3201159173178403 a24.466703595429404,24.466703595429404 0 0,0 -0.4032811656945157,0.11738926985098859 l -0.9402875733321548 -3.336748881471347" fill="#ff2703" stroke="none" /><path d="M 104.64783097203109 120.47920084513623 l 0.5863028322788784 2.583358459153337 a23.649054914420866,23.649054914420866 0 0,0 -0.3966707596331883,0.08645254582360487 l -0.5418696560265541 -2.593042463110661" fill="#ff1b02" stroke="none" /><path d="M 104.29559338865022 120.5559693870025 l 0.6073946769917258 2.906603408753611 a23.969389107108732,23.969389107108732 0 0,0 -0.4034887280494711,0.08070904597077593 l -0.5574094634112959 -2.9166018513872483" fill="#ff2003" stroke="none" /><path d="M 102.875027216393 120.80226474461374 l 0.3131347686907662 2.265687198335833 a23.28722361479281,23.28722361479281 0 0,0 -0.3964618528036808,0.051329924288249236 l -0.27419509399631 -2.2707287188244765" fill="#ff1602" stroke="none" /><line stroke="#e1ed5e" stroke-width="0.3" x1="101.45913802915013" x2="101.54496967792366" y1="184.9874750549273" y2="189.98673829345242" /><path d="M 101.47630435890484 185.9873277026323 a86.0,86.0 0 0,1 -42.54439059252881,-10.42667462771756" fill="none" id="id103" stroke="none" /><text fill="#e1ed5e" style="font-size:6.75px; font-family:Arial;" text-anchor="middle"><textPath startOffset="22.145653131862474" xlink:href="#id103">July</textPath></text><path d="M 91.92203290615298 119.3841803445677 l -0.6703096910649943 1.6084992408810839 a22.742579952211855,22.742579952211855 0 0,0 -0.3590781815374087,-0.1532691235898 l 0.6978229477728342 -1.59675546763188" fill="#ff0e01" stroke="none" /><line stroke="#e1ed5e" stroke-width="0.3" x1="58.13341422392154" x2="55.67067388415222" y1="173.97424548756322" y2="178.32567169271397" /><path d="M 57.64086615596768 174.84453072859336 a86.0,86.0 0 0,1 -31.369924170532247,-30.572349798747897" fill="none" id="id104" stroke="none" /><text fill="#e1ed5e" style="font-size:6.75px; font-family:Arial;" text-anchor="middle"><textPath startOffset="22.145653131862474" xlink:href="#id104">August</textPath></text><path d="M 84.58840730492382 114.26474011684316 l -4.434398268356853 4.104412835468924 a27.04235820904126,27.04235820904126 0 0,0 -0.31240658457956844,-0.3433895620314656 l 4.504202553778299 -4.027685697879784" fill="#ff4b07" stroke="none" /><line stroke="#e1ed5e" stroke-width="0.3" x1="26.387840678322732" x2="22.057713659400534" y1="142.50000000000003" y2="145.00000000000006" /><path d="M 25.521815274538284 143.00000000000003 a86.0,86.0 0 0,1 -11.493303480769212,-40.785679425670985" fill="none" id="id105" stroke="none" /><text fill="#e1ed5e" style="font-size:6.75px; font-family:Arial;" text-anchor="middle"><textPath startOffset="21.40746469413373" xlink:href="#id105">September</textPath></text><path d="M 80.5471966667186 107.91128576633889 l -2.733999869970007 1.111893945869526 a23.95145107292283,23.95145107292283 0 0,0 -0.15162560200563815,-0.38219556622835715 l 2.7526841469417698 -1.0647973624276035" fill="#ff2003" stroke="none" /><path d="M 79.83685265289637 105.86919833188381 l -4.697082133755477 1.3672521531277178 a25.89203015336959,25.89203015336959 0 0,0 -0.1205600834117643,-0.4278252046325691 l 4.719860709241816 -1.286419024592153" fill="#ff3b05" stroke="none" /><path d="M 79.17382384314188 102.69636545807758 l -2.2286027253806715 0.28853724098147404 a23.24720356154207,23.24720356154207 0 0,0 -0.047842649439372345,-0.3962057689773704 l 2.233227461079705 -0.2502377950807043" fill="#ff1602" stroke="none" /><path d="M 79.0935383218832 101.97986365728391 l -2.372615082266574 0.22468911508924477 a23.383230481308598,23.383230481308598 0 0,0 -0.034413854466714834,-0.39994115396428176 l 2.3761225594310296 -0.183926913749301" fill="#ff1802" stroke="none" /><path d="M 79.06263194458094 101.62068470465958 l -14.74618960414666 1.1414483367819932 a35.79030128655212,35.79030128655212 0 0,0 -0.042157632501816124,-0.6129627242478922 l 14.76361119781354 -0.8881421883797577" fill="#ffc011" stroke="none" /><line stroke="#e1ed5e" stroke-width="0.3" x1="15.003131293944662" x2="10.003315487706104" y1="100.72959589197737" y2="100.7725132973878" /><path d="M 14.003168132696942 100.73817937305945 a86.0,86.0 0 0,1 10.791469493833604,-42.45332614584628" fill="none" id="id106" stroke="none" /><text fill="#e1ed5e" style="font-size:6.75px; font-family:Arial;" text-anchor="middle"><textPath startOffset="22.145653131862435" xlink:href="#id106">October</textPath></text><path d="M 79.00696218219943 99.45929381324524 l -14.800691964583445 -0.3812133233388421 a35.80560050212,35.80560050212 0 0,0 0.021100262546641102,-0.6143111216396653 l 14.791967015039953 0.635230709542646" fill="#ffc011" stroke="none" /><path d="M 79.01933749520258 99.09900007780938 l -14.815358210367824 -0.6362352281161437 a35.829013256687354,35.829013256687354 0 0,0 0.03166331130398036,-0.614259780375579 l 14.802253309607273 0.8904668018684349" fill="#ffc011" stroke="none" /><path d="M 79.0935383218832 98.0201363427161 l -14.713307368606124 -1.3933655051749883 a35.77913668500602,35.77913668500602 0 0,0 0.06315461885641477,-0.6109636481840331 l 14.687220357268044 1.6457336756419343" fill="#ffc011" stroke="none" /><path d="M 79.34024301695615 96.23510406497455 l -7.273596956875895 -1.3254916618056427 a28.393384937671687,28.393384937671687 0 0,0 0.091499315875816,-0.4787630845929175 l 7.24977134871792 1.4501573114318749" fill="#ff5e08" stroke="none" /><path d="M 79.64726062577567 94.8264132398404 l -14.346816903603862 -3.6469047541050057 a35.80307635429363,35.80307635429363 0 0,0 0.1565285251845595,-0.5943643057398347 l 14.282098897614576 3.892649564217625" fill="#ffc011" stroke="none" /><path d="M 80.41425534168474 92.42381321644754 l -7.682060003498025 -2.971585838797768 a29.236769287450482,29.236769287450482 0 0,0 0.18508451660872288,-0.4665338880088486 l 7.629916811923171 3.103020744020199" fill="#ff6909" stroke="none" /><path d="M 80.83023694016515 91.42560881287825 l -13.795887804075992 -6.1707251381545545 a36.11305293556882,36.11305293556882 0 0,0 0.25797709342130387,-0.5637265065782983 l 13.687926245799641 6.4066406269475245" fill="#ffc412" stroke="none" /><path d="M 80.9802524753101 91.09779779509293 l -13.378143337844788 -6.261646584168654 a35.77101679346929,35.77101679346929 0 0,0 0.26508153223468534,-0.5539184499836204 l 13.268682547650199 6.490377536217361" fill="#ffbf11" stroke="none" /><line stroke="#e1ed5e" stroke-width="0.3" x1="26.387840678322718" x2="22.05771365940052" y1="57.49999999999999" y2="54.99999999999999" /><path d="M 25.521815274538284 56.99999999999999 a86.0,86.0 0 0,1 29.574782752854787,-30.34633250058573" fill="none" id="id107" stroke="none" /><text fill="#e1ed5e" style="font-size:6.75px; font-family:Arial;" text-anchor="middle"><textPath startOffset="21.40746469413373" xlink:href="#id107">November</textPath></text><path d="M 82.18462484594161 88.88188828441811 l -53.44612546217515 -33.35433514674566 a84.0,84.0 0 0,0 0.7739292334964403,-1.2167453012853122 l 52.865678537052815 34.266894122709644" fill="#4dd2ff" stroke="none" /><line stroke="#e1ed5e" stroke-width="0.3" x1="56.869717070023135" x2="54.33264160355391" y1="26.7553504044142" y2="22.446841604673864" /><path d="M 56.362301976729285 25.89364864446614 a86.0,86.0 0 0,1 42.16139366436587,-11.88097634709845" fill="none" id="id108" stroke="none" /><text fill="#e1ed5e" style="font-size:6.75px; font-family:Arial;" text-anchor="middle"><textPath startOffset="22.145653131862474" xlink:href="#id108">December</textPath></text><path d="M 90.61103034731259 81.2157712731953 l -0.6860043831889406 -1.3724683024961386 a22.534363469035636,22.534363469035636 0 0,0 0.34750107851670464,-0.16998019100363176 l 0.6623430554101829 1.3840422435969846" fill="#ff0b01" stroke="none" /></svg>